# Blender v3.0.1 OBJ File: 'paddle.blend'
# www.blender.org
o Cube
v 1.000000 0.383547 -5.843435
v 1.000000 -0.383547 -5.843435
v 1.000000 0.383547 5.843435
v 1.000000 -0.383547 5.843435
v -1.000000 0.383547 -5.843435
v -1.000000 -0.383547 -5.843435
v -1.000000 0.383547 5.843435
v -1.000000 -0.383547 5.843435
vt 0.501133 0.584856
vt 0.970287 0.665144
vt 0.501133 0.665144
vt 1.001081 0.584857
vt 1.001081 0.665144
vt 0.969657 0.425928
vt 0.018551 0.363499
vt 0.969657 0.363500
vt 0.470340 0.665144
vt 0.001186 0.584856
vt 0.470340 0.584856
vt 0.018551 0.426141
vt 0.969657 0.488570
vt 0.018551 0.488569
vt 0.970287 0.584857
vt 0.018551 0.425928
vt 0.001186 0.665143
vt 0.969657 0.426141
vn 0.0000 1.0000 0.0000
vn 0.0000 0.0000 1.0000
vn -1.0000 0.0000 0.0000
vn 0.0000 -1.0000 0.0000
vn 1.0000 0.0000 0.0000
vn 0.0000 0.0000 -1.0000
s off
f 5/1/1 3/2/1 1/3/1
f 3/2/2 8/4/2 4/5/2
f 7/6/3 6/7/3 8/8/3
f 2/9/4 8/10/4 6/11/4
f 1/12/5 4/13/5 2/14/5
f 5/1/6 2/9/6 6/11/6
f 5/1/1 7/15/1 3/2/1
f 3/2/2 7/15/2 8/4/2
f 7/6/3 5/16/3 6/7/3
f 2/9/4 4/17/4 8/10/4
f 1/12/5 3/18/5 4/13/5
f 5/1/6 1/3/6 2/9/6
